# xmcd
#
# Track frame offsets:
#	150
#	19611
#	39944
#	59120
#	79852
#	100968
#	123214
#	141613
#	162740
#	183933
#	204858
#	222312
#	242526
#	264529
#	284575
#	315318
#
# Disc length: 4506 seconds
#
# Revision: 6
# Processed by: cddbd v1.5.2PL0 Copyright (c) Steve Scherf et al.
# Submitted via: EasyCDDAExtractor 15.3.0.1
#
DISCID=e9119810
DTITLE=Olga Tañon - A Puro Fuego
DYEAR=2003
DGENRE=Latin
TTITLE0=Cuando Tu No Estas (Version Tropical)
TTITLE1=Asi Es La Vida (Version Merengue)
TTITLE2=El Frio De Tu Adios
TTITLE3=Ahora Soy Mala
TTITLE4=Como Olvidar (Version Merengue)
TTITLE5=Entre La Noche Y El Dia
TTITLE6=Es Mentiroso
TTITLE7=Presencie Tu Amor
TTITLE8=Vendras Llorando
TTITLE9=Me Cambio Por Ella
TTITLE10=Llego El Amor
TTITLE11=Muchacho Malo
TTITLE12=Ya Me Canse
TTITLE13=Mienteme
TTITLE14=Cuando Tu No Estas (Version Reggaeton)
TTITLE15=Data
EXTD=
EXTT0=
EXTT1=
EXTT2=
EXTT3=
EXTT4=
EXTT5=
EXTT6=
EXTT7=
EXTT8=
EXTT9=
EXTT10=
EXTT11=
EXTT12=
EXTT13=
EXTT14=
EXTT15=
PLAYORDER=
